HIERARCHY
ROOT hip
{
	OFFSET 0.000000 0.000000 0.000000 
	CHANNELS 6 Xposition Yposition Zposition Xrotation Zrotation Yrotation
	JOINT abdomen
	{
		OFFSET 0.000000 3.402643 0.000000 
		CHANNELS 3 Xrotation Zrotation Yrotation
		JOINT chest
		{
			OFFSET 0.000000 8.438565 -0.680529 
			CHANNELS 3 Xrotation Zrotation Yrotation
			JOINT neck
			{
				OFFSET 0.000000 10.207942 -0.272212 
				CHANNELS 3 Xrotation Zrotation Yrotation
				JOINT head
				{
					OFFSET 0.000000 3.130431 0.000000 
					CHANNELS 3 Xrotation Zrotation Yrotation
					End Site
					{
						OFFSET 0.000000 3.130435 0.000000 
					}
				}
			}
			JOINT lCollar
			{
				OFFSET 3.470700 6.669187 -0.816635 
				CHANNELS 3 Yrotation Zrotation Xrotation
				JOINT lShldr
				{
					OFFSET 3.198488 0.000000 0.000000 
					CHANNELS 3 Zrotation Yrotation Xrotation
					JOINT lForeArm
					{
						OFFSET 10.139888 0.000000 0.000000 
						CHANNELS 3 Yrotation Zrotation Xrotation
						JOINT lHand
						{
							OFFSET 8.370511 0.000000 0.000000 
							CHANNELS 3 Zrotation Yrotation Xrotation
							End Site
							{
								OFFSET 4.083176 0.000000 0.000000 
							}
						}
					}
				}
			}
			JOINT rCollar
			{
				OFFSET -3.470700 6.669187 -0.816635 
				CHANNELS 3 Yrotation Zrotation Xrotation
				JOINT rShldr
				{
					OFFSET -3.198488 0.000000 0.000000 
					CHANNELS 3 Zrotation Yrotation Xrotation
					JOINT rForeArm
					{
						OFFSET -10.139888 0.000000 0.000000 
						CHANNELS 3 Yrotation Zrotation Xrotation
						JOINT rHand
						{
							OFFSET -8.370511 0.000000 0.000000 
							CHANNELS 3 Zrotation Yrotation Xrotation
							End Site
							{
								OFFSET -4.083176 0.000000 0.000000 
							}
						}
					}
				}
			}
		}
	}
	JOINT lThigh
	{
		OFFSET 5.308129 -1.633274 1.361059 
		CHANNELS 3 Xrotation Zrotation Yrotation
		JOINT lShin
		{
			OFFSET -2.041588 -20.007561 0.000000 
			CHANNELS 3 Xrotation Zrotation Yrotation
			JOINT lFoot
			{
				OFFSET 0.000000 -19.190928 -1.224953 
				CHANNELS 3 Xrotation Yrotation Zrotation
				End Site
				{
					OFFSET 0.000000 -2.449906 4.627600 
				}
			}
		}
	}
	JOINT rThigh
	{
		OFFSET -5.308129 -1.633274 1.361059 
		CHANNELS 3 Xrotation Zrotation Yrotation
		JOINT rShin
		{
			OFFSET 2.041588 -20.007561 0.000000 
			CHANNELS 3 Xrotation Zrotation Yrotation
			JOINT rFoot
			{
				OFFSET 0.000000 -19.190928 -1.224953 
				CHANNELS 3 Xrotation Yrotation Zrotation
				End Site
				{
					OFFSET 0.000000 -2.449906 4.627600 
				}
			}
		}
	}
}
MOTION
Frames: 20
Frame Time: 0.033333
-2.407254 47.206768 -3.762035 1.054687 8.417968 -8.417970 6.660156 -8.447267 7.898957 0.000000 0.000000 0.000000 -35.869141 -5.292969 -57.499996 0.000000 0.000000 0.000000 0.000000 0.000000 0.000000 -23.896484 30.332033 90.639694 -84.384766 23.808596 16.621096 15.937500 -14.208984 -6.545364 0.000000 0.000000 0.000000 49.130859 -8.066406 75.683601 46.181641 -7.998046 33.790417 -38.710938 23.974609 4.603578 -5.043742 -1.889699 -13.073040 -3.357743 -13.356144 14.316322 1.283786 7.655900 6.309063 -34.461720 -20.936901 3.278314 34.197689 0.463242 -3.042726 -15.250353 -7.410094 7.500455 
-2.250503 46.960445 -3.504515 1.230469 9.833984 -7.880860 4.746094 -8.632813 7.167967 0.000000 0.000000 0.000000 -30.058594 0.000000 -41.669922 0.000000 0.000000 0.000000 0.000000 0.000000 0.000000 -38.017578 29.589844 76.538025 -63.046875 23.779299 6.656219 8.535156 -12.851563 -9.445532 0.000000 0.000000 0.000000 52.666019 -5.595703 68.319359 35.781250 -8.115234 24.972082 -25.126951 18.007813 4.788177 -7.115011 -3.785708 -12.139928 1.757905 -12.974839 11.747787 -0.886793 8.476871 4.916243 -35.112370 -27.222778 -1.986986 35.669682 2.821497 -6.313121 -11.406033 -6.010418 7.218050 
-1.959393 46.781300 -3.336566 1.933594 11.933595 -7.732355 2.275391 -9.511719 6.844090 0.000000 0.000000 0.000000 -22.519529 3.496094 -23.212294 0.000000 0.000000 0.000000 0.000000 0.000000 0.000000 -52.734375 25.419920 61.830364 -39.873047 19.726561 -3.440796 0.166016 -11.953124 -12.734375 0.000000 0.000000 0.000000 57.187500 -1.787109 60.780945 23.222656 -6.660156 15.303867 -10.429688 11.357421 2.304688 -10.454401 -6.597597 -10.462255 8.367708 -12.097275 8.195698 -3.502482 9.858929 3.494003 -35.771305 -34.511505 -7.553680 37.524120 5.226501 -9.422159 -7.016258 -4.406727 7.052548 
-1.836231 46.456604 -3.023064 2.978516 14.941407 -8.747481 -0.537109 -11.621112 7.537085 0.000000 0.000000 0.000000 -15.644531 4.384766 -6.317613 0.000000 0.000000 0.000000 0.000000 0.000000 0.000000 -63.124996 19.814453 49.690811 -19.238283 12.519532 -9.765625 -5.458984 -11.357421 -12.140593 0.000000 0.000000 0.000000 61.855469 2.929688 55.918465 14.091797 -3.642578 9.483042 1.728516 4.941407 -1.219860 -14.666486 -9.959717 -6.884903 15.608162 -10.857611 4.879344 -6.876016 11.434097 2.442161 -38.093193 -41.236237 -11.564270 39.507629 6.993828 -10.728077 -3.988779 -3.338027 6.434552 
-1.769052 46.602158 -2.888705 1.933594 13.164063 -6.687229 0.869141 -9.853516 6.668250 0.000000 0.000000 0.000000 -14.257813 4.218750 -5.643814 0.000000 0.000000 0.000000 0.000000 0.000000 0.000000 -63.300781 18.271484 52.083138 -18.945311 13.242188 -9.367472 -6.484375 -11.035155 -13.283118 0.000000 0.000000 0.000000 63.154301 1.669922 55.420208 13.876952 -5.048828 9.072267 2.011719 4.697266 -4.013671 -11.842218 -7.127230 -6.211432 14.011393 -9.686007 4.151804 -5.391647 8.669478 0.292516 -31.123072 -37.079773 -12.824860 35.290558 5.952135 -9.062386 -3.478088 -3.119620 6.338454 
-1.869821 46.814892 -2.810329 0.000000 10.195313 -2.988281 3.164063 -6.679626 5.243056 0.000000 0.000000 0.000000 -11.962891 3.867188 -4.403638 0.000000 0.000000 0.000000 0.000000 0.000000 0.000000 -63.007813 16.259768 57.112110 -18.857422 14.257812 -8.586389 -7.851562 -10.732421 -14.904160 0.000000 0.000000 0.000000 64.941406 -1.425781 54.453121 14.892577 -8.769531 8.300781 3.164063 4.550782 -9.032428 -7.097163 -2.264722 -3.884881 11.882421 -7.020366 2.187091 -4.074167 3.911192 -3.491153 -20.534105 -29.396469 -13.567627 27.840725 3.290900 -6.389939 -2.972435 -2.827721 6.830386 
-2.295289 47.094807 -2.776740 -2.119140 6.845704 1.583195 5.791016 -3.173828 3.857422 0.000000 0.000000 0.000000 -9.853516 3.681641 -3.514998 0.000000 0.000000 0.000000 0.000000 0.000000 0.000000 -62.128910 14.775392 62.509769 -19.023438 15.869141 -7.753906 -9.248047 -10.537110 -16.484375 0.000000 0.000000 0.000000 65.966797 -6.972656 52.841228 18.525393 -14.824219 8.537655 4.667969 5.400391 -15.770562 -3.250410 2.684267 0.168252 11.897789 -3.670450 -0.515570 -3.889087 -2.120793 -7.528379 -10.898325 -21.258459 -12.408356 21.685003 1.181170 -3.180011 -3.249319 -4.268828 7.389583 
-3.011867 47.094807 -2.810329 -3.173828 4.394532 7.031998 8.242188 -0.537109 3.164068 0.000000 0.000000 0.000000 -10.205078 3.681641 -4.384138 0.000000 0.000000 0.000000 0.000000 0.000000 0.000000 -59.931637 15.410156 66.213531 -19.892578 18.037109 -6.487399 -10.800780 -10.673828 -17.335793 0.000000 0.000000 0.000000 66.259766 -15.488280 50.075520 23.251953 -21.962893 8.734121 5.849610 9.296875 -25.652718 -4.072654 6.455404 2.884105 17.612898 -0.597873 -3.181767 -6.439509 -8.385973 -12.691693 -6.151827 -15.415862 -11.644732 21.446243 -0.390702 -1.035683 -5.337739 -7.113791 7.077916 
-3.728444 46.199081 -2.821526 -2.646484 1.933594 12.832361 10.546875 1.406250 3.164302 0.000000 0.000000 0.000000 -14.765624 3.681641 -7.899764 0.000000 0.000000 0.000000 0.000000 0.000000 0.000000 -56.708984 17.578125 64.583031 -21.005857 19.785156 -4.163460 -11.904297 -11.513671 -16.369135 0.000000 0.000000 0.000000 66.533203 -24.921877 45.175781 20.644531 -24.072268 2.015702 2.490234 11.357422 -38.191437 -11.167962 9.195690 3.136057 29.980036 3.045649 -5.992314 -12.577263 -11.488355 -17.885578 -8.105322 -12.821475 -13.268342 29.509361 -0.898368 -0.671117 -9.532483 -9.338126 7.000632 
-4.232289 44.866695 -2.631185 -1.064453 -2.646484 17.216797 11.054688 5.078125 4.219615 0.000000 0.000000 0.000000 -21.816406 2.978516 -12.148438 0.000000 0.000000 0.000000 0.000000 0.000000 0.000000 -53.134762 20.341797 56.546368 -22.382813 19.843750 0.709576 -11.787109 -13.115233 -14.865496 0.000000 0.000000 0.000000 66.552734 -29.814451 35.581081 7.500000 -14.433594 -9.609375 -6.435547 0.351563 -45.664032 -22.571653 13.062551 1.572775 44.228882 6.413230 -7.617259 -17.586430 -12.418883 -20.476719 -13.846252 -10.476686 -16.252554 39.387001 -0.576243 -1.090430 -13.821276 -9.881234 7.865544 
-4.478613 43.847809 -2.362468 0.351563 -9.316397 18.767967 10.546875 11.601563 6.007823 0.000000 0.000000 0.000000 -29.541016 1.054688 -14.238059 0.000000 0.000000 0.000000 0.000000 0.000000 0.000000 -50.957031 21.035158 45.986328 -23.398439 18.769533 6.572265 -12.089843 -14.960937 -13.361894 0.000000 0.000000 0.000000 63.212894 -28.828125 22.983572 -4.277344 -1.093750 -14.453124 -10.576172 -12.880860 -48.508038 -33.968613 18.356112 0.473784 54.942410 9.234106 -7.183682 -20.977636 -12.283442 -18.063168 -18.920668 -6.275327 -19.281668 43.780849 -0.058695 -0.212645 -15.746767 -10.136486 9.194011 
-4.187503 43.847809 -2.272896 2.978516 -14.599609 17.214334 10.703125 16.337891 6.328125 0.000000 0.000000 0.000000 -36.044918 1.230469 -12.665806 0.000000 0.000000 0.000000 0.000000 0.000000 0.000000 -48.798828 18.183594 41.738281 -22.568359 18.583984 6.530091 -12.792969 -16.367188 -12.656251 0.000000 0.000000 0.000000 55.791016 -19.169920 15.172575 -7.353515 1.796875 -12.461245 -7.187500 -11.767578 -47.189487 -39.946808 20.798409 2.956089 57.928288 11.323981 -5.206062 -21.831347 -11.263597 -12.372245 -21.164717 -3.306617 -20.488615 39.893230 -0.224667 -0.086372 -12.877789 -8.759699 11.832863 
-2.899902 43.903793 -2.295289 8.427734 -14.072266 11.062078 10.722656 15.458984 6.015625 0.000000 0.000000 0.000000 -38.496094 3.867188 -8.075514 0.000000 0.000000 0.000000 0.000000 0.000000 0.000000 -45.800781 13.046875 44.035408 -20.732422 19.433596 1.188157 -13.378907 -17.031250 -12.568360 0.000000 0.000000 0.000000 43.896484 0.029297 9.970709 -6.513672 -0.439453 -10.410170 0.947266 -3.457031 -43.710941 -39.038807 18.766745 7.895675 53.250122 10.601053 -3.294114 -20.454769 -8.511286 -7.882411 -21.333336 -3.298795 -18.212801 29.718779 -1.508829 -2.236288 -5.617078 -5.747370 14.550467 
-0.884526 45.404129 -2.631185 11.933594 -9.511719 1.053074 9.306642 10.898438 7.033096 0.000000 0.000000 0.000000 -33.222656 7.021485 -1.385525 0.000000 0.000000 0.000000 0.000000 0.000000 0.000000 -39.638672 6.787110 49.669125 -20.400391 21.533203 -4.495771 -13.398438 -17.890627 -12.444406 0.000000 0.000000 0.000000 25.859375 24.052734 -0.302734 -5.351562 -4.716797 -8.964041 9.511720 8.613282 -40.369629 -32.605934 14.979262 15.323177 44.382664 6.608305 -3.025003 -16.200155 -4.113836 -3.217507 -18.093334 -4.920489 -19.055201 24.748905 -3.183331 -4.968985 -1.448532 -4.816503 15.669646 
1.410763 46.367031 -3.191011 10.195313 -4.755859 -7.402342 6.328125 6.328125 8.789063 0.000000 0.000000 0.000000 -23.203125 9.492188 4.767236 0.000000 0.000000 0.000000 0.000000 0.000000 0.000000 -33.095707 2.373047 52.509766 -23.486326 23.710938 -5.746113 -13.134766 -19.843750 -13.294331 0.000000 0.000000 0.000000 -0.722656 41.367184 -12.822264 -4.951172 -8.964844 -10.252384 15.312500 15.830078 -38.444599 -24.449146 9.800650 22.071985 35.306435 3.180860 -0.421784 -12.914812 -1.648275 -0.269711 -12.758329 -3.638227 -21.962582 30.804029 -3.286109 -6.182354 -3.222184 -6.453180 14.842288 
3.235798 46.635750 -3.112636 7.363281 -1.240234 -12.500000 2.812500 1.572266 9.843750 0.000000 0.000000 0.000000 -14.765624 12.304688 8.644660 0.000000 0.000000 0.000000 0.000000 0.000000 0.000000 -28.183592 0.898438 50.527500 -29.580078 26.855469 -1.303240 -13.652344 -22.031250 -14.232177 0.000000 0.000000 0.000000 -31.777342 46.123043 -23.957806 -5.068359 -10.751953 -13.642579 17.724611 21.123051 -38.473045 -18.460836 3.276559 23.363258 28.236294 1.121241 4.065358 -9.311399 -0.389191 1.205283 -6.627612 0.538322 -21.533218 35.374123 -3.086007 -5.194449 -3.039111 -6.054128 15.977341 
4.915277 46.736519 -2.239306 5.791016 1.572266 -15.995825 0.703125 -3.359375 10.350990 0.000000 0.000000 0.000000 -10.742188 15.449221 11.240234 0.000000 0.000000 0.000000 0.000000 0.000000 0.000000 -22.343750 -1.269531 47.265408 -36.972652 29.541016 3.657296 -14.999999 -23.134766 -16.312429 0.000000 0.000000 0.000000 -56.054688 38.300781 -31.126760 -3.066406 -14.560546 -18.710936 15.214844 28.339846 -44.809818 -15.877497 -1.846250 20.937948 25.252129 -0.449469 8.722552 -5.027491 -0.606684 -0.441583 -0.656351 4.818603 -23.013357 30.215755 -3.810309 -1.205306 1.862245 -5.373046 17.523451 
6.661935 46.994038 -0.940509 5.273438 3.847597 -19.335567 -0.361328 -7.578125 9.638672 0.000000 0.000000 0.000000 -8.095703 17.929689 15.823318 0.000000 0.000000 0.000000 0.000000 0.000000 0.000000 -16.845703 -0.986328 43.710938 -44.990234 31.337891 7.621874 -15.644531 -24.638672 -21.136881 0.000000 0.000000 0.000000 -68.515625 26.269531 -35.527340 -0.253906 -23.056643 -23.847654 12.138672 31.875000 -57.817108 -17.519737 -3.556600 17.551962 28.633045 -2.997560 11.981155 1.533098 -6.048327 -6.324619 2.462269 7.309696 -25.984968 22.070490 -4.229502 0.091784 7.443406 -7.019299 14.037704 
8.061502 47.050018 -1.735462 6.142578 4.902344 -26.727680 -0.537109 -8.281262 4.559134 0.000000 0.000000 0.000000 -2.470703 19.160288 28.303823 0.000000 0.000000 0.000000 0.000000 0.000000 0.000000 -14.052734 8.271484 40.235779 -55.175781 32.265625 12.631505 -15.898437 -28.212891 -29.867899 0.000000 0.000000 0.000000 -69.238281 13.320313 -37.304688 4.277344 -37.285156 -31.390570 6.367188 28.837893 -77.290207 -23.740322 4.531535 20.904057 41.865837 -3.936977 7.924702 4.151106 -13.081656 -14.553081 2.627513 6.125928 -21.316715 16.063183 -4.042949 -1.131605 8.620988 -10.024344 9.510086 
10.524738 46.221474 -1.601104 7.714845 4.384766 -40.262924 0.527344 -4.921867 -2.491076 0.000000 0.000000 0.000000 3.867188 17.753906 42.942432 0.000000 0.000000 0.000000 0.000000 0.000000 0.000000 -10.449220 23.271486 44.824219 -67.724609 32.675781 18.349611 -18.115234 -33.864159 -39.997898 0.000000 0.000000 0.000000 -58.164059 0.761719 -36.035088 18.125002 -55.253906 -31.876741 -0.039063 23.828125 -95.693359 -25.107105 20.555855 27.754227 53.130165 1.831569 3.240244 5.179193 -7.270936 -16.006071 3.562699 4.186032 -11.886521 12.073624 -4.239868 0.919539 3.375803 -6.660813 10.915292 
